<?xml version="1.0" encoding="utf-8"?>
<!-- Generator: Adobe Illustrator 18.1.1, SVG Export Plug-In . SVG Version: 6.00 Build 0)  -->
<svg version="1.1" id="Camada_1" xmlns="http://www.w3.org/2000/svg" xmlns:xlink="http://www.w3.org/1999/xlink" x="0px" y="0px"
	 viewBox="-5.1 1735.8 1376.1 528.3" enable-background="new -5.1 1735.8 1376.1 528.3" xml:space="preserve">
<g display="none">
	<path display="inline" fill="#6D767A" d="M348.5,5639.6v-58.2H362c6.2,0,11.4,1.9,15.1,5.8c3.7,4.1,5.6,9.5,5.6,16.6v12.2
		c0,7.4-1.9,12.9-5.6,17c-3.7,4.1-8.9,6.2-15.5,6.2h-13.3L348.5,5639.6L348.5,5639.6z M352.9,5586v49.7h8.9c5.2,0,9.2-1.5,12.2-4.8
		c2.9-3.3,4.4-7.7,4.4-13.6V5605c0-5.8-1.5-10.7-4.1-14c-2.9-3.3-7-4.8-12.2-4.8h-9.2L352.9,5586L352.9,5586z"/>
	<path display="inline" fill="#6D767A" d="M422,5612.1h-22.5v23.6h26.1v4.4H395v-58.6h30.2v4.4h-25.8v21.7H422V5612.1L422,5612.1z"
		/>
	<path display="inline" fill="#6D767A" d="M463,5625.6c0-3.3-1.1-5.8-2.9-7.7c-1.8-1.9-5.2-3.7-10.3-5.6c-5.2-1.9-8.9-3.7-11-5.8
		c-2.9-2.5-4.8-6.2-4.8-11c0-4.4,1.5-8.1,4.4-11s7-4.1,11.8-4.1s8.9,1.5,12.2,4.8c3.3,3.3,4.8,7.4,4.8,12.5h-4.4
		c0-4.1-1.1-7-3.3-9.5s-5.2-3.7-8.9-3.7s-6.6,1.1-8.9,2.9c-2.3,1.8-3.3,4.4-3.3,7.7c0,2.9,1.1,5.2,2.9,7.4c1.9,1.9,5.2,3.7,9.5,5.2
		c4.4,1.5,7.7,2.9,9.9,4.4c2.2,1.5,4.1,3.3,4.8,5.6c1.1,2.2,1.5,4.4,1.5,7.4c0,4.4-1.5,8.1-4.8,11c-2.9,2.9-7,4.1-12.2,4.1
		c-3.3,0-6.6-0.8-9.2-2.2c-2.9-1.5-5.2-3.3-6.6-5.8c-1.5-2.5-2.2-5.8-2.2-9.2h4.4c0,4.1,1.1,7.4,3.7,9.5c2.5,2.2,5.8,3.7,9.9,3.7
		c3.7,0,6.6-1.1,8.9-2.9C461.9,5631.6,463,5629,463,5625.6z"/>
	<path display="inline" fill="#6D767A" d="M483.2,5639.6h-4.4v-58.2h4.4V5639.6z"/>
	<path display="inline" fill="#6D767A" d="M533.3,5633c-1.9,2.5-4.4,4.4-7.4,5.6c-2.9,1.1-6.2,1.9-9.5,1.9c-5.8,0-10.7-1.9-14-5.8
		c-3.3-4-5.2-9.5-5.2-16.6v-14c0-7.4,1.5-13.3,4.8-17s7.7-5.8,14-5.8c5.6,0,9.5,1.5,12.5,4.4c2.9,2.9,4.8,7.4,5.2,12.9h-4.5
		c-0.4-4.4-1.9-7.7-4.1-9.9c-2.2-2.2-5.2-2.9-9.2-2.9c-4.8,0-8.5,1.5-10.7,4.8s-3.7,7.7-3.7,14v13.3c0,5.8,1.5,10.7,4.1,14
		c2.6,3.3,6.2,5.2,11,5.2c5.2,0,9.2-1.5,12.5-4.8v-15.1h-12.9v-4.4h17.3v20.7h-0.3v-0.5H533.3z"/>
	<path display="inline" fill="#6D767A" d="M583,5639.6h-4.4L551,5590v49.7h-4.4v-58.2h4.4l27.6,49.7v-49.7h4.4V5639.6z"/>
	<path display="inline" fill="#6D767A" d="M595.2,5650.8l-2.9-2.2c2.5-3.3,3.7-6.6,3.7-10.3v-6.2h4.8v4.8
		C601,5643,599.2,5647.3,595.2,5650.8z"/>
	<path display="inline" fill="#6D767A" d="M630.8,5639.6v-58.2h13.6c6.2,0,11.4,1.9,15.1,5.8c3.7,4.1,5.6,9.5,5.6,16.6v12.2
		c0,7.4-1.9,12.9-5.6,17c-3.7,4.1-8.9,6.2-15.5,6.2h-13.3L630.8,5639.6L630.8,5639.6z M635.6,5586v49.7h8.9c5.2,0,9.2-1.5,12.2-4.8
		c3-3.3,4.4-7.7,4.4-13.6V5605c0-5.8-1.5-10.7-4.1-14c-2.9-3.3-7-4.8-12.2-4.8h-9.2L635.6,5586L635.6,5586z"/>
	<path display="inline" fill="#6D767A" d="M704.9,5612.1h-22.5v23.6h26.1v4.4H678v-58.6h30.2v4.4h-25.8v21.7h22.5V5612.1z"/>
	<path display="inline" fill="#6D767A" d="M733.2,5632.6v0.8V5632.6l15.5-50.8h5.2l-18,58.2h-4.4l-18-58.6h5.2L733.2,5632.6z"/>
	<path display="inline" fill="#6D767A" d="M789.5,5612.1H767v23.6h26.1v4.4h-30.6v-58.6h30.2v4.4H767v21.7h22.5V5612.1z"/>
	<path display="inline" fill="#6D767A" d="M808,5635.6h24v4.4h-28.7v-58.6h4.4v54.1L808,5635.6L808,5635.6z"/>
	<path display="inline" fill="#6D767A" d="M874.6,5617.2c0,7.4-1.5,13.3-4.8,17.3c-3.3,4.1-7.7,6.2-14,6.2c-5.8,0-10.7-2.2-14-6.2
		c-3.3-4.1-5.2-9.9-5.2-17.3v-12.5c0-7.4,1.9-13.3,5.2-17.3c3.3-4.1,8.1-6.2,14-6.2c5.8,0,10.7,2.2,14,6.2c3.3,4.1,4.8,9.9,4.8,17.6
		V5617.2z M870.1,5604.3c0-6.2-1.1-11-3.7-14.3c-2.5-3.3-5.8-4.8-10.7-4.8c-4.4,0-8.1,1.5-10.3,4.8s-3.7,7.7-3.7,14v12.9
		c0,6.2,1.1,11,3.7,14.3c2.5,3.3,5.8,4.8,10.7,4.8s8.1-1.5,10.7-4.8c2.5-3.3,3.7-8.1,3.7-14.3v-12.5h-0.4V5604.3z"/>
	<path display="inline" fill="#6D767A" d="M891.6,5616.1v23.6h-4.4v-58.2h17c5.2,0,9.2,1.5,12.2,4.8c2.9,3.3,4.4,7.4,4.4,12.9
		c0,5.6-1.5,9.5-4.4,12.9c-2.9,2.9-7,4.4-12.5,4.4h-12.2L891.6,5616.1L891.6,5616.1z M891.6,5612.1h12.5c3.7,0,6.6-1.1,8.9-3.3
		c2.2-2.2,3.3-5.6,3.3-9.5c0-4.1-1.1-7.4-3.3-9.5c-2.2-2.2-5.2-3.7-8.9-3.7h-12.5V5612.1z"/>
	<path display="inline" fill="#6D767A" d="M956.7,5608c-2.2-2.9-3.7-5.6-4.4-7.7c-0.8-2.2-1.1-4.4-1.1-6.2c0-4.1,1.1-7.4,2.9-9.5
		c2.2-2.2,4.8-3.7,8.5-3.7c2.9,0,5.6,1.1,7.7,3.3c1.9,2.2,2.9,4.8,2.9,8.1c0,3.7-1.9,7.4-5.2,11l-5.6,5.2l13.3,18.4
		c1.9-3.7,2.9-8.1,2.9-12.9h4.1c0,6.6-1.5,12.2-4.4,16.6l6.6,9.5h-5.6l-4.1-5.6c-1.9,1.9-3.7,3.7-5.8,4.8c-2.2,1.1-4.8,1.9-7.4,1.9
		c-4.8,0-8.5-1.5-11-4.4c-2.9-2.9-4.1-6.6-4.1-11.4c0-2.9,0.8-5.6,2.2-8.1C950.4,5614.6,953,5611.8,956.7,5608z M962.2,5636.3
		c4.1,0,7.7-1.9,10.7-5.8l-13.6-18.8l-0.4-0.4l-1.5,1.5c-4.4,4.1-6.2,8.1-6.2,12.2c0,3.3,1.1,6.2,2.9,8.5
		C956,5635.6,958.9,5636.3,962.2,5636.3z M955.6,5594c0,3.3,1.5,7,4.4,11.4l4.1-3.7c1.5-1.1,2.5-2.5,3.3-4.1
		c0.8-1.5,1.5-3.3,1.5-5.2c0-2.2-0.8-3.7-1.9-5.2c-1.1-1.5-2.9-2.2-4.8-2.2c-2.2,0-3.7,0.8-5.2,2.5
		C955.6,5589.6,955.6,5591,955.6,5594z"/>
	<path display="inline" fill="#6D767A" d="M1038.1,5623.5h-21.7l-4.8,16.2h-4.8l18.4-58.2h4.4l18.4,58.2h-4.8L1038.1,5623.5z
		 M1017.4,5619.5h19.2l-9.5-31.3L1017.4,5619.5z"/>
	<path display="inline" fill="#6D767A" d="M1089.6,5581.5v41.2c0,5.6-1.5,9.9-4.4,12.9c-2.9,2.9-7.4,4.8-12.9,4.8
		c-5.6,0-9.9-1.5-12.9-4.4c-3-2.9-4.4-7.4-4.4-13.3v-41.2h4.4v40.8c0,9.2,4.4,13.6,12.9,13.6s12.5-4.4,12.9-13.3v-41.2
		L1089.6,5581.5L1089.6,5581.5z"/>
	<path display="inline" fill="#6D767A" d="M1102.5,5639.6v-58.2h13.6c6.2,0,11.4,1.9,15.1,5.8c3.7,4.1,5.6,9.5,5.6,16.6v12.2
		c0,7.4-1.9,12.9-5.6,17c-3.7,4.1-8.9,6.2-15.5,6.2h-13.3L1102.5,5639.6L1102.5,5639.6z M1106.9,5586v49.7h8.9
		c5.2,0,9.2-1.5,12.2-4.8c2.9-3.3,4.4-7.7,4.4-13.6V5605c0-5.8-1.5-10.7-4.1-14c-2.9-3.3-7-4.8-12.2-4.8h-9.2L1106.9,5586
		L1106.9,5586z"/>
	<path display="inline" fill="#6D767A" d="M1154.4,5639.6h-4.4v-58.2h4.4V5639.6z"/>
	<path display="inline" fill="#6D767A" d="M1205.2,5617.2c0,7.4-1.5,13.3-4.8,17.3s-7.7,6.2-14,6.2c-5.8,0-10.7-2.2-14-6.2
		c-3.3-4.1-5.2-9.9-5.2-17.3v-12.5c0-7.4,1.9-13.3,5.2-17.3c3.3-4.1,8.1-6.2,14-6.2c5.8,0,10.7,2.2,14,6.2c3.3,4.1,4.8,9.9,4.8,17.6
		V5617.2z M1200.4,5604.3c0-6.2-1.1-11-3.7-14.3c-2.5-3.3-5.8-4.8-10.7-4.8c-4.4,0-8.1,1.5-10.3,4.8c-2.5,3.3-3.7,7.7-3.7,14v12.9
		c0,6.2,1.1,11,3.7,14.3c2.5,3.3,5.8,4.8,10.7,4.8c4.8,0,8.1-1.5,10.7-4.8c2.5-3.3,3.7-8.1,3.7-14.3v-12.5h-0.4V5604.3z"/>
</g>
<path d="M-5.1,1735.8v528.3h1376.1v-528.3H-5.1L-5.1,1735.8z M171.2,2177.5l-51.5-160.2c48.6-2.2,100.8-45.7,113.4-99.4
	c10.7-44.9-9.9-83.2-45.3-95.8c82.8,16.2,145.1,89.1,145.5,176.3C333.2,2091.8,262.2,2168.4,171.2,2177.5z"/>
<g>
	<path fill="#FFFFFF" d="M435.6,1977.3l-5.8-0.4c-8.1,0-14.7,2.5-19.9,7.7c-5.6,5.2-8.9,12.5-10.7,21.7v60.8h-4.8v-93.5h4.8v19.5
		c2.5-6.6,6.2-11.8,11.4-15.5c5.2-3.7,11.4-5.6,19.2-5.6c2.5,0,4.8,0.4,6.6,1.1L435.6,1977.3z"/>
	<path fill="#FFFFFF" d="M510.3,2067.1c-1.1-4.1-1.9-9.5-1.9-17c-3.7,5.8-8.9,10.7-15.1,14c-6.2,3.3-13.6,4.8-21.7,4.8
		c-8.5,0-15.5-2.2-20.9-7c-5.6-4.8-7.7-10.7-7.7-18.4c0-8.5,4.1-15.5,11.8-20.7c7.7-5.2,18-7.7,30.9-7.7h23.2v-13.6
		c0-7.7-2.5-14-7.4-18c-4.8-4.1-11.8-6.6-20.9-6.6c-8.5,0-15.5,2.2-21.3,6.6s-8.5,9.9-8.5,16.2H446c0-7.7,3.3-14,9.9-19.2
		s14.7-8.1,24.6-8.1s18,2.5,24,7.7c5.8,5.2,8.9,12.2,9.2,21.3v44.5c0,10.3,0.8,17.3,2.5,20.9l0,0L510.3,2067.1L510.3,2067.1z
		 M472,2064.1c8.9,0,16.2-1.9,22.5-5.8c6.2-4.1,11-9.5,14.3-16.6v-22.1h-21.7c-13.3,0-23.6,2.5-30.6,8.1c-5.8,4.4-8.5,9.5-8.5,16.2
		c0,5.6,2.2,10.7,7,14.3C459.8,2061.9,465,2064.1,472,2064.1z"/>
	<path fill="#FFFFFF" d="M550.5,2067.1v-88.8h-16.2v-4.8h16.2v-13.6c0-8.5,2.2-15.5,6.6-20.3c4.4-4.8,10.3-7.4,18-7.4
		c4.4,0,8.1,0.4,11,1.5l-0.8,4.4c-2.9-0.8-6.2-1.5-10.3-1.5c-6.2,0-11,1.9-14.3,5.8c-3.3,4.1-5.2,9.5-5.2,17v13.3h24.6v4.8h-24.6
		v89.4L550.5,2067.1L550.5,2067.1z"/>
	<path fill="#FFFFFF" d="M659.5,2067.1c-1.1-4.1-1.9-9.5-1.9-17c-3.7,5.8-8.9,10.7-15.1,14c-6.2,3.3-13.6,4.8-21.7,4.8
		c-8.5,0-15.5-2.2-20.9-7c-5.6-4.8-7.7-10.7-7.7-18.4c0-8.5,4.1-15.5,11.8-20.7s18-7.7,30.9-7.7H658v-13.6c0-7.7-2.5-14-7.4-18
		c-4.8-4.1-11.8-6.6-20.9-6.6c-8.5,0-15.5,2.2-21.3,6.6s-8.5,9.9-8.5,16.2h-4.8c0-7.7,3.3-14,9.9-19.2c6.6-5.2,14.7-8.1,24.6-8.1
		s18,2.5,24,7.7c5.8,5.2,8.9,12.2,9.2,21.3v44.5c0,10.3,0.8,17.3,2.5,20.9l0,0L659.5,2067.1L659.5,2067.1z M620.8,2064.1
		c8.9,0,16.2-1.9,22.5-5.8c6.2-4.1,11-9.5,14.3-16.6v-22.1h-21.7c-13.3,0-23.6,2.5-30.6,8.1c-5.8,4.4-8.5,9.5-8.5,16.2
		c0,5.6,2.2,10.7,7,14.3C608.6,2061.9,613.8,2064.1,620.8,2064.1z"/>
	<path fill="#FFFFFF" d="M682,2019.5c0-9.2,1.9-17.6,5.6-25c3.7-7.4,8.9-12.9,15.5-17s14.7-5.8,24-5.8c14,0,25,4.4,33.1,12.9
		c8.1,8.9,12.2,20.7,12.2,35.4v1.1c0,14.7-4.1,26.1-12.2,34.6c-8.1,8.5-19.2,12.9-32.7,12.9c-13.3,0-24-4.1-32.1-11.8
		c-8.1-8.1-12.5-18.8-12.9-32.4L682,2019.5z M711,2021.4c0,8.5,1.5,15.1,4.1,19.2c2.5,4.1,6.6,5.8,12.2,5.8c10.3,0,15.5-8.1,15.8-24
		v-2.9c0-16.6-5.6-25-16.2-25c-9.5,0-15.1,7.4-15.8,21.7L711,2021.4L711,2021.4z"/>
	<path fill="#FFFFFF" d="M841.3,2000.2l-9.5-0.8c-9.2,0-15.1,2.9-17.6,8.5v59.2h-29.1v-93.5h27.2l1.1,12.2
		c4.8-9.2,11.8-13.6,20.7-13.6c2.9,0,5.8,0.4,8.1,1.1L841.3,2000.2z"/>
	<path fill="#FFFFFF" d="M890,1950.4v23.2h15.5v20.3H890v42.7c0,3.7,0.8,5.8,1.9,7.4c1.1,1.5,3.7,2.2,7.4,2.2c2.9,0,5.2,0,7.4-0.4
		v20.7c-5.2,1.9-10.7,2.5-16.6,2.5c-9.9,0-17.3-2.2-22.1-7c-4.8-4.8-7-11.8-7-21.3v-46.8H849v-20.3h11.8v-23.2L890,1950.4
		L890,1950.4z"/>
	<path fill="#FFFFFF" d="M944.5,1973.7l1.1,11c6.6-8.5,15.5-12.5,26.5-12.5c11.8,0,19.9,4.8,24,14c6.2-9.2,15.5-14,27.6-14
		c18.8,0,28.7,11.4,29.1,34.2v60.8h-29.2v-58.9c0-4.8-0.8-8.1-2.5-10.3c-1.8-2.2-4.4-3.3-8.9-3.3c-5.8,0-9.9,2.5-12.9,7.7v1.1v63.7
		h-29.1v-58.9c0-4.8-0.8-8.5-2.2-10.7c-1.5-2.2-4.4-3.3-8.9-3.3c-5.6,0-9.9,2.5-12.9,7.7v65.2H917v-93.5h27.3l0,0H944.5z"/>
	<path fill="#FFFFFF" d="M1121.6,2067.1c-1.1-1.9-1.9-4.8-2.9-8.5c-5.6,6.6-12.9,9.9-22.5,9.9c-8.9,0-16.2-2.5-22.5-8.1
		c-6.2-5.6-9.2-12.2-9.2-19.9c0-10.3,3.7-17.6,11-22.8c7.4-5.2,18.4-7.7,32.7-7.7h8.9v-4.8c0-8.5-3.7-12.9-11-12.9
		c-7,0-10.3,3.3-10.3,10.3h-29.1c0-9.2,3.7-16.2,11.4-22.1c7.7-5.8,17.3-8.5,29.4-8.5c11.8,0,21.3,2.9,28.4,8.9
		c7,5.8,10.3,13.6,10.7,24v41.2c0,8.5,1.5,15.1,4.1,19.5v1.5H1121.6L1121.6,2067.1z M1103.6,2047.9c3.7,0,6.6-0.8,8.9-2.2
		c2.2-1.5,4.1-3.3,5.2-5.2v-15h-8.5c-10.3,0-15.1,4.4-15.1,13.6c0,2.5,0.8,4.8,2.5,6.2C1098.4,2046.8,1100.5,2047.9,1103.6,2047.9z"
		/>
	<path fill="#FFFFFF" d="M1189.7,1973.7l1.1,11c6.6-8.5,15.5-12.5,26.5-12.5c9.5,0,17,2.9,21.7,8.9c4.8,5.8,7.4,14.7,7.4,26.1v60
		h-29.1v-58.9c0-4.8-1.1-8.1-2.9-10.3s-5.6-3.3-10.3-3.3c-5.6,0-9.9,2.2-12.5,6.6v65.9h-29.1v-93.5H1189.7L1189.7,1973.7z"/>
</g>
</svg>
