<?xml version="1.0" encoding="utf-8"?>
<!-- Generator: Adobe Illustrator 18.1.1, SVG Export Plug-In . SVG Version: 6.00 Build 0)  -->
<svg version="1.1" id="Camada_1" xmlns="http://www.w3.org/2000/svg" xmlns:xlink="http://www.w3.org/1999/xlink" x="0px" y="0px"
	 viewBox="0 1747.6 1366 483.3" enable-background="new 0 1747.6 1366 483.3" xml:space="preserve">
<path fill="#EC6730" d="M159.6,1806.8c37.5,13.3,59.3,53.9,48,101.5c-13.3,57-68.7,103-120.2,105.4l54.6,169.8
	c96.4-9.8,171.7-90.9,171.7-189.7C313.4,1901.3,247.4,1824,159.6,1806.8z"/>
<g>
	<path fill="#FFFFFF" d="M422.3,1971.1l-6.2-0.4c-8.6,0-15.6,2.7-21.1,8.2c-5.9,5.5-9.4,13.3-11.3,23v64.4h-5.1v-99.1h5.1v20.7
		c2.7-7,6.6-12.5,12.1-16.4c5.5-3.9,12.1-5.9,20.3-5.9c2.7,0,5.1,0.4,7,1.2L422.3,1971.1z"/>
	<path fill="#FFFFFF" d="M501.5,2066.3c-1.2-4.3-2-10.1-2-18c-3.9,6.2-9.4,11.3-16,14.8c-6.6,3.5-14.4,5.1-23,5.1
		c-9,0-16.4-2.3-22.2-7.4s-8.2-11.3-8.2-19.5c0-9,4.3-16.4,12.5-21.9c8.2-5.5,19.1-8.2,32.8-8.2H500v-14.4c0-8.2-2.7-14.8-7.8-19.1
		c-5.1-4.3-12.5-7-22.2-7c-9,0-16.4,2.3-22.6,7c-6.2,4.7-9,10.5-9,17.2h-5.1c0-8.2,3.5-14.8,10.5-20.3c7-5.5,15.6-8.6,26.1-8.6
		c10.5,0,19.1,2.7,25.4,8.2s9.4,12.9,9.8,22.6v47.2c0,10.9,0.8,18.3,2.7,22.2l0,0H501.5z M460.9,2063.2c9.4,0,17.2-2,23.8-6.2
		s11.7-10.1,15.2-17.6V2016h-23c-14.1,0-25,2.7-32.4,8.6c-6.2,4.7-9,10.1-9,17.2c0,5.9,2.3,11.3,7.4,15.2S453.5,2063.2,460.9,2063.2
		z"/>
	<path fill="#FFFFFF" d="M544.1,2066.3v-94.1h-17.2v-5.1h17.2v-14.4c0-9,2.3-16.4,7-21.5c4.7-5.1,10.9-7.8,19.1-7.8
		c4.7,0,8.6,0.4,11.7,1.6l-0.8,4.7c-3.1-0.8-6.6-1.6-10.9-1.6c-6.6,0-11.7,2-15.2,6.2c-3.5,4.3-5.5,10.1-5.5,18v14.1h26.1v5.1h-26.1
		v94.8H544.1z"/>
	<path fill="#FFFFFF" d="M659.6,2066.3c-1.2-4.3-2-10.1-2-18c-3.9,6.2-9.4,11.3-16,14.8c-6.6,3.5-14.4,5.1-23,5.1
		c-9,0-16.4-2.3-22.2-7.4s-8.2-11.3-8.2-19.5c0-9,4.3-16.4,12.5-21.9c8.2-5.5,19.1-8.2,32.8-8.2H658v-14.4c0-8.2-2.7-14.8-7.8-19.1
		c-5.1-4.3-12.5-7-22.2-7c-9,0-16.4,2.3-22.6,7c-6.2,4.7-9,10.5-9,17.2h-5.1c0-8.2,3.5-14.8,10.5-20.3s15.6-8.6,26.1-8.6
		c10.5,0,19.1,2.7,25.4,8.2c6.2,5.5,9.4,12.9,9.8,22.6v47.2c0,10.9,0.8,18.3,2.7,22.2l0,0H659.6z M618.6,2063.2
		c9.4,0,17.2-2,23.8-6.2c6.6-4.3,11.7-10.1,15.2-17.6V2016h-23c-14.1,0-25,2.7-32.4,8.6c-6.2,4.7-9,10.1-9,17.2
		c0,5.9,2.3,11.3,7.4,15.2S611.2,2063.2,618.6,2063.2z"/>
	<path fill="#FFFFFF" d="M683.4,2016c0-9.8,2-18.7,5.9-26.5c3.9-7.8,9.4-13.7,16.4-18c7-4.3,15.6-6.2,25.4-6.2
		c14.8,0,26.5,4.7,35.1,13.7c8.6,9.4,12.9,21.9,12.9,37.5v1.2c0,15.6-4.3,27.7-12.9,36.7c-8.6,9-20.3,13.7-34.7,13.7
		c-14.1,0-25.4-4.3-34-12.5c-8.6-8.6-13.3-19.9-13.7-34.3L683.4,2016z M714.2,2018c0,9,1.6,16,4.3,20.3c2.7,4.3,7,6.2,12.9,6.2
		c10.9,0,16.4-8.6,16.8-25.4v-3.1c0-17.6-5.9-26.5-17.2-26.5c-10.1,0-16,7.8-16.8,23L714.2,2018z"/>
	<path fill="#FFFFFF" d="M852.4,1995.3l-10.1-0.8c-9.8,0-16,3.1-18.7,9v62.8h-30.8v-99.1h28.9l1.2,12.9c5.1-9.8,12.5-14.4,21.9-14.4
		c3.1,0,6.2,0.4,8.6,1.2L852.4,1995.3z"/>
	<path fill="#FFFFFF" d="M903.9,1942.6v24.6h16.4v21.5h-16.4v45.3c0,3.9,0.8,6.2,2,7.8s3.9,2.3,7.8,2.3c3.1,0,5.5,0,7.8-0.4v21.9
		c-5.5,2-11.3,2.7-17.6,2.7c-10.5,0-18.3-2.3-23.4-7.4s-7.4-12.5-7.4-22.6v-49.6h-12.5v-21.5h12.5v-24.6H903.9z"/>
	<path fill="#FFFFFF" d="M961.7,1967.2l1.2,11.7c7-9,16.4-13.3,28.1-13.3c12.5,0,21.1,5.1,25.4,14.8c6.6-9.8,16.4-14.8,29.3-14.8
		c19.9,0,30.4,12.1,30.8,36.3v64.4h-30.8v-62.4c0-5.1-0.8-8.6-2.7-10.9c-2-2.3-4.7-3.5-9.4-3.5c-6.2,0-10.5,2.7-13.7,8.2v1.2v67.5
		H989v-62.4c0-5.1-0.8-9-2.3-11.3s-4.7-3.5-9.4-3.5c-5.9,0-10.5,2.7-13.7,8.2v69.1h-30.8v-99.1H961.7z"/>
	<path fill="#FFFFFF" d="M1149.4,2066.3c-1.2-2-2-5.1-3.1-9c-5.9,7-13.7,10.5-23.8,10.5c-9.4,0-17.2-2.7-23.8-8.6
		s-9.8-12.9-9.8-21.1c0-10.9,3.9-18.7,11.7-24.2c7.8-5.5,19.5-8.2,34.7-8.2h9.4v-5.1c0-9-3.9-13.7-11.7-13.7
		c-7.4,0-10.9,3.5-10.9,10.9h-30.8c0-9.8,3.9-17.2,12.1-23.4c8.2-6.2,18.3-9,31.2-9c12.5,0,22.6,3.1,30.1,9.4s10.9,14.4,11.3,25.4
		v43.7c0,9,1.6,16,4.3,20.7v1.6H1149.4z M1130.3,2046.1c3.9,0,7-0.8,9.4-2.3c2.3-1.6,4.3-3.5,5.5-5.5v-16h-9c-10.9,0-16,4.7-16,14.4
		c0,2.7,0.8,5.1,2.7,6.6C1124.8,2044.9,1127.1,2046.1,1130.3,2046.1z"/>
	<path fill="#FFFFFF" d="M1221.6,1967.2l1.2,11.7c7-9,16.4-13.3,28.1-13.3c10.1,0,18,3.1,23,9.4c5.1,6.2,7.8,15.6,7.8,27.7v63.6
		h-30.8v-62.4c0-5.1-1.2-8.6-3.1-10.9c-2-2.3-5.9-3.5-10.9-3.5c-5.9,0-10.5,2.3-13.3,7v69.9h-30.8v-99.1H1221.6z"/>
</g>
<g display="none">
	<path display="inline" fill="#6D767A" d="M370.4,2183v-61.7h14.4c6.6,0,12.1,2,16,6.2c3.9,4.3,5.9,10.1,5.9,17.6v12.9
		c0,7.8-2,13.7-5.9,18c-3.9,4.3-9.4,6.6-16.4,6.6h-14.1V2183z M375.1,2126.1v52.7h9.4c5.5,0,9.8-1.6,12.9-5.1
		c3.1-3.5,4.7-8.2,4.7-14.4v-12.9c0-6.2-1.6-11.3-4.3-14.8c-3.1-3.5-7.4-5.1-12.9-5.1h-9.8V2126.1z"/>
	<path display="inline" fill="#6D767A" d="M448.4,2153.8h-23.8v25h27.7v4.7h-32.4v-62.1h32v4.7h-27.3v23h23.8L448.4,2153.8
		L448.4,2153.8z"/>
	<path display="inline" fill="#6D767A" d="M491.8,2168.2c0-3.5-1.2-6.2-3.1-8.2s-5.5-3.9-10.9-5.9c-5.5-2-9.4-3.9-11.7-6.2
		c-3.1-2.7-5.1-6.6-5.1-11.7c0-4.7,1.6-8.6,4.7-11.7c3.1-3.1,7.4-4.3,12.5-4.3s9.4,1.6,12.9,5.1c3.5,3.5,5.1,7.8,5.1,13.3h-4.7
		c0-4.3-1.2-7.4-3.5-10.1c-2.3-2.7-5.5-3.9-9.4-3.9s-7,1.2-9.4,3.1s-3.5,4.7-3.5,8.2c0,3.1,1.2,5.5,3.1,7.8c2,2,5.5,3.9,10.1,5.5
		c4.7,1.6,8.2,3.1,10.5,4.7c2.3,1.6,4.3,3.5,5.1,5.9c1.2,2.3,1.6,4.7,1.6,7.8c0,4.7-1.6,8.6-5.1,11.7c-3.1,3.1-7.4,4.3-12.9,4.3
		c-3.5,0-7-0.8-9.8-2.3c-3.1-1.6-5.5-3.5-7-6.2c-1.6-2.7-2.3-6.2-2.3-9.8h4.7c0,4.3,1.2,7.8,3.9,10.1c2.7,2.3,6.2,3.9,10.5,3.9
		c3.9,0,7-1.2,9.4-3.1C490.6,2174.5,491.8,2171.7,491.8,2168.2z"/>
	<path display="inline" fill="#6D767A" d="M513.2,2183h-4.7v-61.7h4.7V2183z"/>
	<path display="inline" fill="#6D767A" d="M566.3,2176c-2,2.7-4.7,4.7-7.8,5.9c-3.1,1.2-6.6,2-10.1,2c-6.2,0-11.3-2-14.8-6.2
		c-3.5-4.3-5.5-10.1-5.5-17.6v-14.8c0-7.8,1.6-14.1,5.1-18c3.5-3.9,8.2-6.2,14.8-6.2c5.9,0,10.1,1.6,13.3,4.7
		c3.1,3.1,5.1,7.8,5.5,13.7H562c-0.4-4.7-2-8.2-4.3-10.5c-2.3-2.3-5.5-3.1-9.8-3.1c-5.1,0-9,1.6-11.3,5.1c-2.3,3.5-3.9,8.2-3.9,14.8
		v14.1c0,6.2,1.6,11.3,4.3,14.8c2.7,3.5,6.6,5.5,11.7,5.5c5.5,0,9.8-1.6,13.3-5.1v-16h-13.7v-4.7h18.3v21.9H566.3z"/>
	<path display="inline" fill="#6D767A" d="M619,2183h-4.7l-29.3-52.7v52.7h-4.7v-61.7h4.7l29.3,52.7v-52.7h4.7V2183z"/>
	<path display="inline" fill="#6D767A" d="M631.9,2194.8l-3.1-2.3c2.7-3.5,3.9-7,3.9-10.9v-6.6h5.1v5.1
		C638.1,2186.6,636.2,2191.2,631.9,2194.8z"/>
	<path display="inline" fill="#6D767A" d="M669.7,2183v-61.7h14.4c6.6,0,12.1,2,16,6.2c3.9,4.3,5.9,10.1,5.9,17.6v12.9
		c0,7.8-2,13.7-5.9,18c-3.9,4.3-9.4,6.6-16.4,6.6h-14.1V2183z M674.8,2126.1v52.7h9.4c5.5,0,9.8-1.6,12.9-5.1
		c3.1-3.5,4.7-8.2,4.7-14.4v-12.9c0-6.2-1.6-11.3-4.3-14.8c-3.1-3.5-7.4-5.1-12.9-5.1h-9.8V2126.1z"/>
	<path display="inline" fill="#6D767A" d="M748.2,2153.8h-23.8v25h27.7v4.7h-32.4v-62.1h32v4.7h-27.3v23h23.8V2153.8z"/>
	<path display="inline" fill="#6D767A" d="M778.2,2175.6v0.8V2175.6l16.4-53.9h5.5l-19.1,61.7h-4.7l-19.1-62.1h5.5L778.2,2175.6z"/>
	<path display="inline" fill="#6D767A" d="M837.9,2153.8h-23.8v25h27.7v4.7h-32.4v-62.1h32v4.7h-27.3v23h23.8V2153.8z"/>
	<path display="inline" fill="#6D767A" d="M857.5,2178.8h25.4v4.7h-30.4v-62.1h4.7v57.4H857.5z"/>
	<path display="inline" fill="#6D767A" d="M928.1,2159.2c0,7.8-1.6,14.1-5.1,18.3c-3.5,4.3-8.2,6.6-14.8,6.6
		c-6.2,0-11.3-2.3-14.8-6.6c-3.5-4.3-5.5-10.5-5.5-18.3V2146c0-7.8,2-14.1,5.5-18.3c3.5-4.3,8.6-6.6,14.8-6.6s11.3,2.3,14.8,6.6
		c3.5,4.3,5.1,10.5,5.1,18.7V2159.2z M923.4,2145.6c0-6.6-1.2-11.7-3.9-15.2c-2.7-3.5-6.2-5.1-11.3-5.1c-4.7,0-8.6,1.6-10.9,5.1
		c-2.3,3.5-3.9,8.2-3.9,14.8v13.7c0,6.6,1.2,11.7,3.9,15.2c2.7,3.5,6.2,5.1,11.3,5.1c5.1,0,8.6-1.6,11.3-5.1
		c2.7-3.5,3.9-8.6,3.9-15.2v-13.3H923.4z"/>
	<path display="inline" fill="#6D767A" d="M946.1,2158.1v25h-4.7v-61.7h18c5.5,0,9.8,1.6,12.9,5.1c3.1,3.5,4.7,7.8,4.7,13.7
		s-1.6,10.1-4.7,13.7c-3.1,3.1-7.4,4.7-13.3,4.7h-12.9V2158.1z M946.1,2153.8h13.3c3.9,0,7-1.2,9.4-3.5c2.3-2.3,3.5-5.9,3.5-10.1
		c0-4.3-1.2-7.8-3.5-10.1c-2.3-2.3-5.5-3.9-9.4-3.9h-13.3V2153.8z"/>
	<path display="inline" fill="#6D767A" d="M1015.1,2149.5c-2.3-3.1-3.9-5.9-4.7-8.2c-0.8-2.3-1.2-4.7-1.2-6.6
		c0-4.3,1.2-7.8,3.1-10.1c2.3-2.3,5.1-3.9,9-3.9c3.1,0,5.9,1.2,8.2,3.5c2,2.3,3.1,5.1,3.1,8.6c0,3.9-2,7.8-5.5,11.7l-5.9,5.5
		l14.1,19.5c2-3.9,3.1-8.6,3.1-13.7h4.3c0,7-1.6,12.9-4.7,17.6l7,10.1h-5.9l-4.3-5.9c-2,2-3.9,3.9-6.2,5.1c-2.3,1.2-5.1,2-7.8,2
		c-5.1,0-9-1.6-11.7-4.7c-3.1-3.1-4.3-7-4.3-12.1c0-3.1,0.8-5.9,2.3-8.6C1008.5,2156.5,1011.2,2153.4,1015.1,2149.5z M1021,2179.5
		c4.3,0,8.2-2,11.3-6.2l-14.4-19.9l-0.4-0.4l-1.6,1.6c-4.7,4.3-6.6,8.6-6.6,12.9c0,3.5,1.2,6.6,3.1,9
		C1014.4,2178.8,1017.5,2179.5,1021,2179.5z M1014,2134.6c0,3.5,1.6,7.4,4.7,12.1l4.3-3.9c1.6-1.2,2.7-2.7,3.5-4.3
		c0.8-1.6,1.6-3.5,1.6-5.5c0-2.3-0.8-3.9-2-5.5c-1.2-1.6-3.1-2.3-5.1-2.3c-2.3,0-3.9,0.8-5.5,2.7C1014,2130,1014,2131.5,1014,2134.6
		z"/>
	<path display="inline" fill="#6D767A" d="M1101.4,2165.9h-23l-5.1,17.2h-5.1l19.5-61.7h4.7l19.5,61.7h-5.1L1101.4,2165.9z
		 M1079.5,2161.6h20.3l-10.1-33.2L1079.5,2161.6z"/>
	<path display="inline" fill="#6D767A" d="M1156,2121.4v43.7c0,5.9-1.6,10.5-4.7,13.7c-3.1,3.1-7.8,5.1-13.7,5.1
		c-5.9,0-10.5-1.6-13.7-4.7s-4.7-7.8-4.7-14.1v-43.7h4.7v43.3c0,9.8,4.7,14.4,13.7,14.4c9,0,13.3-4.7,13.7-14.1v-43.7H1156z"/>
	<path display="inline" fill="#6D767A" d="M1169.7,2183v-61.7h14.4c6.6,0,12.1,2,16,6.2c3.9,4.3,5.9,10.1,5.9,17.6v12.9
		c0,7.8-2,13.7-5.9,18c-3.9,4.3-9.4,6.6-16.4,6.6h-14.1V2183z M1174.4,2126.1v52.7h9.4c5.5,0,9.8-1.6,12.9-5.1
		c3.1-3.5,4.7-8.2,4.7-14.4v-12.9c0-6.2-1.6-11.3-4.3-14.8c-3.1-3.5-7.4-5.1-12.9-5.1h-9.8V2126.1z"/>
	<path display="inline" fill="#6D767A" d="M1224.7,2183h-4.7v-61.7h4.7V2183z"/>
	<path display="inline" fill="#6D767A" d="M1278.6,2159.2c0,7.8-1.6,14.1-5.1,18.3c-3.5,4.3-8.2,6.6-14.8,6.6
		c-6.2,0-11.3-2.3-14.8-6.6c-3.5-4.3-5.5-10.5-5.5-18.3V2146c0-7.8,2-14.1,5.5-18.3c3.5-4.3,8.6-6.6,14.8-6.6
		c6.2,0,11.3,2.3,14.8,6.6c3.5,4.3,5.1,10.5,5.1,18.7V2159.2z M1273.5,2145.6c0-6.6-1.2-11.7-3.9-15.2c-2.7-3.5-6.2-5.1-11.3-5.1
		c-4.7,0-8.6,1.6-10.9,5.1c-2.7,3.5-3.9,8.2-3.9,14.8v13.7c0,6.6,1.2,11.7,3.9,15.2c2.7,3.5,6.2,5.1,11.3,5.1
		c5.1,0,8.6-1.6,11.3-5.1c2.7-3.5,3.9-8.6,3.9-15.2v-13.3H1273.5z"/>
</g>
</svg>
